<?xml version="1.0" standalone="no"?>
<!DOCTYPE svg PUBLIC "-//W3C//DTD SVG 20010904//EN"
 "http://www.w3.org/TR/2001/REC-SVG-20010904/DTD/svg10.dtd">
<svg version="1.0" xmlns="http://www.w3.org/2000/svg"
 width="460.000000pt" height="460.000000pt" viewBox="0 0 460.000000 460.000000"
 preserveAspectRatio="xMidYMid meet">

<g transform="translate(0.000000,460.000000) scale(0.100000,-0.100000)"
fill="#000000" stroke="none">
<path d="M4555 4354 c-22 -18 -53 -39 -70 -45 -16 -6 -39 -15 -50 -20 -11 -5
-65 -23 -120 -40 -55 -18 -137 -49 -183 -70 -45 -22 -87 -39 -92 -39 -5 0 -36
-16 -68 -35 -65 -38 -202 -70 -209 -49 -5 15 -85 -7 -91 -24 -2 -7 -15 -12
-28 -12 -13 0 -24 -4 -24 -10 0 -5 -4 -10 -10 -10 -5 0 -10 7 -10 16 0 14 -3
14 -15 4 -8 -7 -15 -9 -15 -4 0 5 -23 9 -51 9 -28 0 -53 3 -56 8 -9 14 -22 7
-25 -15 -2 -15 -9 -22 -21 -20 -9 1 -25 3 -34 5 -10 1 -21 9 -25 17 -5 11 -7
9 -7 -7 -1 -23 -21 -43 -22 -21 -2 42 -21 -48 -22 -104 0 -37 -5 -64 -9 -62
-4 3 -8 16 -8 30 0 43 -20 26 -21 -18 l-1 -43 -8 35 c-4 19 -9 42 -11 50 -3
10 3 14 19 13 26 -3 27 5 10 77 -8 37 -16 49 -26 45 -7 -3 -18 -5 -24 -5 -6 0
-8 -11 -6 -25 3 -14 2 -25 -3 -25 -9 0 -7 -20 5 -38 10 -17 1 -26 -18 -19 -11
5 -13 13 -6 36 13 45 2 71 -29 71 -14 1 -49 9 -78 19 -49 17 -55 17 -100 1
-37 -13 -56 -14 -81 -6 -29 8 -36 7 -44 -7 -5 -10 -13 -15 -17 -12 -11 6 -84
-29 -99 -48 -7 -8 -13 -33 -15 -55 l-2 -41 -26 25 c-14 13 -30 24 -36 24 -6 0
-16 13 -23 29 -17 42 -33 44 -70 11 -18 -16 -37 -27 -41 -24 -5 3 -9 -2 -9
-11 0 -10 -6 -15 -17 -13 -10 2 -23 -5 -30 -17 -13 -20 -13 -20 -19 3 -3 12
-14 22 -24 22 -11 0 -20 10 -24 25 -9 35 -35 32 -43 -5 -3 -17 -15 -37 -26
-45 -17 -12 -24 -12 -48 1 -39 20 -66 18 -74 -6 -4 -11 -21 -36 -38 -54 -25
-26 -42 -35 -74 -38 -33 -3 -43 0 -44 12 0 8 -7 0 -15 -17 -8 -18 -19 -33 -24
-33 -6 0 -10 -7 -10 -16 0 -8 -4 -13 -9 -9 -12 6 -51 -42 -52 -64 0 -13 -2
-13 -6 -1 -3 8 -10 19 -15 25 -5 5 -15 19 -23 30 -9 11 -15 16 -14 10 4 -30
-1 -34 -27 -25 -23 9 -27 7 -37 -20 -11 -28 -23 -35 -54 -31 -8 1 -13 -9 -13
-24 0 -18 -5 -25 -18 -25 -26 0 -34 11 -21 26 14 17 5 44 -14 44 -8 0 -20 -6
-26 -14 -10 -12 -9 -20 4 -39 14 -22 14 -25 0 -37 -21 -17 -201 -14 -254 5
-22 7 -54 16 -73 19 -38 6 -126 27 -213 51 -33 9 -80 20 -105 25 -197 39 -247
54 -277 81 -27 27 -33 23 -26 -14 7 -33 47 -76 168 -180 151 -130 189 -168
173 -179 -9 -7 -7 -8 8 -4 14 4 28 -2 44 -19 13 -14 32 -25 42 -25 11 0 16 -5
13 -10 -9 -15 14 -40 35 -40 10 0 28 -9 41 -19 l24 -19 -32 -19 c-45 -25 -41
-32 12 -27 42 5 60 -6 35 -21 -16 -10 1 -34 27 -37 l26 -3 -26 -25 c-15 -14
-27 -28 -27 -32 0 -3 28 -7 61 -7 34 0 67 -5 72 -10 8 -8 3 -11 -16 -11 -18 0
-27 -5 -27 -15 0 -9 -11 -20 -24 -25 -30 -11 -43 -30 -21 -30 16 0 15 -10 -2
-57 -3 -7 0 -13 6 -13 6 0 11 7 11 15 0 8 9 15 20 15 23 0 26 -10 8 -28 -9 -9
-9 -12 0 -12 6 0 9 -7 6 -15 -4 -8 -2 -15 4 -15 21 0 22 -33 1 -48 -13 -9 -17
-18 -11 -24 11 -11 4 -48 -9 -48 -5 0 -8 -3 -7 -7 3 -15 -20 -58 -41 -77 -11
-11 -21 -26 -21 -35 0 -9 -9 -35 -21 -56 -11 -22 -23 -60 -26 -85 -3 -25 -6
-52 -7 -60 -3 -19 -16 -70 -23 -90 -3 -8 -6 -26 -7 -40 -1 -14 -7 -35 -14 -48
-7 -13 -12 -33 -11 -45 3 -22 -20 -67 -33 -67 -5 0 -8 8 -8 18 0 9 -12 28 -26
41 -25 24 -25 24 -65 6 -35 -16 -45 -17 -76 -6 -29 11 -37 11 -44 0 -10 -17
-55 5 -123 61 -25 21 -52 40 -59 43 -14 5 16 38 48 52 16 6 9 10 -35 17 -30 5
-68 7 -84 6 l-28 -3 36 -37 c32 -33 34 -39 26 -69 -6 -19 -10 -46 -10 -62 0
-16 -10 -35 -25 -49 -27 -24 -52 -85 -39 -98 12 -11 56 -16 69 -8 6 4 117 8
246 9 191 2 240 0 255 -12 22 -16 30 -55 15 -72 -7 -9 -2 -16 20 -26 21 -9 30
-19 28 -35 -1 -11 1 -29 5 -38 4 -9 5 -22 1 -27 -10 -18 25 -79 48 -84 17 -3
14 -5 -8 -6 -16 -1 -39 -8 -50 -16 -17 -14 -15 -15 30 -9 37 4 46 3 35 -5 -13
-10 -13 -12 0 -21 13 -8 11 -11 -7 -16 -24 -6 -32 -24 -12 -24 6 0 9 -9 6 -20
-3 -11 -1 -20 4 -20 15 0 10 -50 -6 -56 -21 -8 -19 -21 5 -27 11 -3 25 -16 31
-30 10 -22 8 -30 -10 -53 -15 -19 -18 -30 -10 -35 8 -4 5 -10 -7 -18 -17 -9
-16 -10 9 -11 16 0 26 -4 22 -10 -3 -5 -1 -10 6 -10 7 0 4 -7 -7 -15 -17 -13
-16 -13 16 -3 19 6 50 17 68 24 18 8 36 14 40 14 10 0 -86 -60 -97 -60 -6 0
-13 -5 -17 -12 -4 -7 -3 -8 4 -4 8 5 12 -1 12 -17 0 -23 -57 -76 -125 -116
-19 -11 -19 -12 3 -6 12 4 46 22 75 41 61 40 71 42 60 12 -4 -13 -8 -40 -8
-60 0 -21 -8 -46 -17 -57 -10 -12 -15 -28 -11 -38 5 -12 2 -15 -10 -10 -20 7
-47 -17 -47 -42 0 -10 -11 -24 -25 -31 -27 -14 -35 -33 -10 -24 24 10 17 -8
-20 -50 -40 -43 -47 -60 -12 -28 13 12 26 19 30 16 4 -4 -3 -15 -14 -25 -12
-10 -18 -22 -15 -27 3 -5 1 -23 -3 -40 -6 -18 -5 -34 0 -39 13 -13 0 -91 -18
-109 -8 -8 -11 -14 -7 -14 4 0 -1 -9 -11 -20 -23 -25 -23 -70 0 -87 17 -12 17
-14 2 -31 -10 -10 -15 -21 -12 -24 3 -3 -6 -13 -19 -24 l-25 -18 29 -13 c37
-15 37 -23 4 -62 -14 -17 -21 -31 -15 -31 12 0 5 -70 -9 -84 -16 -16 -12 -26
9 -26 19 0 20 -16 4 -60 -10 -26 -10 -54 -2 -85 7 -22 4 -39 -11 -67 l-20 -38
457 0 456 0 31 33 c17 18 24 24 15 13 -31 -40 -31 -46 -5 -46 14 0 26 5 26 11
0 13 102 121 108 114 3 -3 -7 -16 -21 -29 -30 -28 -35 -41 -11 -32 9 3 12 2 9
-5 -4 -5 -12 -8 -17 -7 -10 4 -58 -36 -58 -47 0 -3 20 -5 45 -5 25 0 45 4 45
8 0 5 7 17 16 28 15 18 15 18 5 -3 -16 -32 -15 -33 33 -33 30 0 46 5 50 15 3
8 13 15 22 15 13 0 14 -3 4 -15 -10 -12 -10 -15 4 -15 9 0 27 18 40 39 14 22
30 42 36 46 5 3 8 16 6 28 -1 12 -1 16 1 9 3 -7 9 -9 15 -6 7 4 8 -2 3 -17 -6
-18 0 -15 24 15 17 21 31 36 31 34 0 -19 -35 -83 -61 -113 l-31 -35 35 0 c20
0 39 4 42 10 3 5 -1 10 -9 10 -9 0 -16 5 -16 11 0 5 5 7 12 3 6 -4 9 -3 5 2
-3 5 2 18 10 29 15 19 15 19 9 1 -5 -16 -4 -17 9 -6 18 15 18 14 6 -28 -9 -32
-9 -32 24 -32 19 0 36 3 38 7 3 5 -1 38 -8 76 -7 38 -9 70 -4 73 5 3 9 -13 9
-35 0 -48 13 -59 34 -29 21 29 21 5 0 -26 -9 -14 -11 -27 -6 -30 6 -3 15 6 20
22 6 15 20 38 31 52 15 19 22 22 31 13 5 -7 7 -11 4 -8 -9 6 -34 -14 -34 -27
0 -6 6 -6 14 1 11 9 15 6 19 -16 4 -20 1 -33 -13 -45 -11 -9 -20 -19 -20 -22
0 -3 420 -6 933 -6 607 0 927 4 917 10 -9 6 -10 10 -3 10 6 0 15 -5 18 -10 3
-6 17 -10 31 -10 l24 0 0 1606 0 1606 -25 -6 c-47 -12 -122 -17 -100 -7 19 8
18 10 -10 20 -21 8 -36 24 -48 52 -9 22 -24 42 -32 45 -24 10 -84 113 -78 135
5 16 8 18 15 7 6 -9 7 -6 3 10 -4 13 -4 40 0 61 6 37 9 39 46 43 21 2 39 0 39
-4 0 -15 30 -8 50 12 11 11 29 20 40 20 12 0 34 10 50 21 l29 22 -20 38 c-11
22 -24 39 -29 39 -6 0 -10 12 -10 26 0 23 3 25 25 20 27 -7 35 10 14 31 -8 8
-8 17 0 31 18 35 12 60 -19 84 -17 12 -29 27 -27 32 4 13 -11 29 -38 41 -18 8
-17 9 9 13 16 2 32 -1 35 -7 11 -17 51 -9 51 11 0 9 -4 19 -9 23 -5 3 -8 18
-6 35 3 20 -1 30 -12 32 -13 2 -10 9 14 32 18 16 29 35 26 43 -3 8 0 24 6 36
7 14 11 55 9 104 l-3 81 -40 -34z m-1112 -439 c-5 -30 -3 -34 11 -29 15 6 15
3 5 -20 -13 -27 -35 -37 -26 -11 7 18 -9 30 -17 13 -3 -7 -3 -2 0 12 5 25 25
70 30 70 2 0 0 -16 -3 -35z m82 -8 c-4 -15 -13 -31 -20 -37 -11 -9 -13 -6 -9
15 4 24 25 57 32 50 2 -1 0 -14 -3 -28z m150 13 c3 -5 1 -10 -4 -10 -6 0 -11
5 -11 10 0 6 2 10 4 10 3 0 8 -4 11 -10z m50 -39 c-16 -32 -35 -49 -35 -32 0
6 5 11 10 11 6 0 10 6 10 13 0 12 19 37 27 37 2 0 -3 -13 -12 -29z m-829 -28
c-11 -11 -24 9 -18 29 l5 22 9 -24 c5 -12 6 -25 4 -27z m294 37 c8 -5 10 -10
4 -10 -14 0 -25 -48 -13 -56 5 -3 9 5 9 16 0 16 5 20 15 16 9 -3 15 0 15 9 0
8 5 15 10 15 17 0 2 -53 -17 -64 -10 -6 -20 -11 -23 -11 -3 0 -12 -4 -20 -9
-8 -5 -12 -5 -7 -1 4 5 0 19 -9 33 -12 18 -13 26 -5 32 7 4 11 11 10 16 -4 25
6 30 31 14z m207 -22 c-3 -7 -5 -2 -5 12 0 14 2 19 5 13 2 -7 2 -19 0 -25z
m278 12 c-3 -5 -11 -10 -16 -10 -6 0 -7 5 -4 10 3 6 11 10 16 10 6 0 7 -4 4
-10z m795 0 c12 -8 11 -10 -7 -10 -13 0 -23 5 -23 10 0 13 11 13 30 0z m-1070
-52 c0 -9 -4 -20 -10 -23 -5 -3 -10 -16 -10 -27 0 -12 -3 -18 -7 -14 -8 8 -13
97 -6 109 7 11 32 -24 33 -45z m-538 -1 c16 -34 14 -72 -3 -46 -12 19 -12 -26
0 -49 4 -9 11 -33 14 -52 6 -30 5 -32 -5 -15 -7 11 -17 35 -24 54 -11 33 -11
33 -16 7 -3 -14 -1 -23 3 -20 5 3 9 -3 10 -13 0 -10 2 -40 3 -66 1 -26 7 -51
13 -55 7 -4 19 -26 28 -47 14 -35 14 -38 0 -21 -8 11 -15 24 -15 29 0 4 -4 6
-9 2 -5 -3 -18 22 -28 55 -9 33 -21 60 -24 60 -4 0 -5 10 -1 22 3 15 2 19 -7
14 -9 -6 -10 0 -5 19 5 21 4 26 -7 23 -15 -5 -15 -14 -4 -91 3 -26 10 -45 15
-42 4 3 13 -9 19 -27 14 -38 14 -48 1 -48 -5 0 -10 6 -10 14 0 7 -8 20 -17 27
-9 8 -14 9 -11 4 10 -17 -8 -39 -26 -32 -10 4 -16 18 -15 39 l1 33 9 -34 c13
-44 20 -36 10 11 -6 23 -5 40 2 47 7 7 7 24 0 56 -6 25 -6 45 -2 45 5 0 9 8 9
18 0 14 -2 15 -10 2 -5 -8 -10 -10 -10 -5 0 19 -30 -47 -30 -67 0 -10 -4 -17
-9 -14 -5 3 -11 -4 -15 -17 -3 -12 -1 -24 4 -25 6 -2 7 -8 4 -14 -3 -5 -15 5
-26 22 -10 18 -17 35 -14 38 4 3 6 -1 6 -8 0 -10 3 -11 11 -3 8 8 6 18 -6 36
-17 26 -12 82 7 71 6 -4 7 2 3 16 -5 16 -4 20 5 15 9 -5 10 -2 5 14 -5 16 -3
20 10 15 9 -4 14 -13 11 -21 -3 -8 -1 -11 4 -8 6 3 10 17 10 31 0 29 14 31 33
4 14 -21 14 -21 21 2 6 22 7 22 20 5 12 -15 15 -15 26 -2 9 10 9 15 1 15 -6 0
-11 4 -11 10 0 19 27 -2 42 -33z m99 -37 c3 0 3 14 1 31 -3 22 -1 30 7 25 6
-4 11 -15 12 -24 0 -14 2 -13 9 3 7 18 8 19 15 3 4 -10 11 -15 16 -12 5 3 9
-3 9 -13 0 -15 2 -15 9 -4 5 8 17 16 25 17 9 1 14 -1 11 -6 -3 -4 2 -26 10
-49 8 -23 12 -41 10 -41 -12 0 -20 6 -17 13 1 4 -3 7 -8 7 -5 0 -10 -8 -11
-17 0 -10 -6 0 -14 22 l-13 40 3 -50 c2 -27 6 -58 10 -67 4 -10 4 -18 1 -18
-13 0 -36 69 -29 86 4 12 3 15 -5 10 -8 -5 -12 1 -13 16 0 22 -1 22 -9 3 -5
-11 -9 -14 -9 -7 -1 6 -6 12 -12 12 -6 0 -8 -8 -5 -17 6 -17 5 -17 -8 0 -7 9
-18 17 -23 17 -17 0 -35 46 -28 71 7 22 8 22 29 -14 11 -20 24 -37 27 -37z
m687 36 c-2 -12 -11 -31 -20 -40 -10 -9 -15 -22 -13 -29 3 -7 -4 -23 -15 -37
-11 -14 -20 -20 -20 -13 0 6 5 15 10 18 6 3 10 13 10 21 0 8 -4 12 -10 9 -15
-9 0 26 27 63 29 38 35 40 31 8z m245 10 c4 -11 1 -13 -10 -9 -13 5 -15 2 -10
-11 4 -10 3 -15 -3 -11 -6 3 -10 1 -10 -4 0 -6 -5 -11 -10 -11 -15 0 20 58 36
60 1 0 4 -7 7 -14z m-546 -33 c-3 -10 -5 -4 -5 12 0 17 2 24 5 18 2 -7 2 -21
0 -30z m124 -15 c-10 -21 -21 -34 -25 -31 -3 3 4 24 16 45 28 49 35 36 9 -14z
m-144 5 c-3 -10 -5 -4 -5 12 0 17 2 24 5 18 2 -7 2 -21 0 -30z m343 27 c0 -5
-5 -10 -11 -10 -5 0 -7 5 -4 10 3 6 8 10 11 10 2 0 4 -4 4 -10z m113 -20 c-9
-16 -21 -30 -26 -30 -5 0 1 14 13 30 12 17 24 30 26 30 3 0 -3 -13 -13 -30z
m-273 -15 c-7 -9 -15 -13 -18 -10 -3 2 1 11 8 20 7 9 15 13 18 10 3 -2 -1 -11
-8 -20z m-1049 -68 c1 -42 5 -74 10 -71 5 3 9 -10 9 -29 0 -19 3 -56 6 -83 4
-36 3 -45 -5 -34 -6 8 -11 29 -12 45 l-1 30 -9 -30 c-5 -16 -6 -38 -3 -49 4
-12 2 -16 -5 -12 -6 4 -11 19 -11 34 0 26 -18 67 -21 47 -1 -5 -5 4 -9 20 l-8
30 -1 -30 c-1 -23 -3 -27 -11 -15 -8 12 -10 10 -10 -10 0 -39 -16 -57 -22 -26
-3 14 0 27 5 29 7 2 7 14 -2 35 -8 18 -11 35 -7 39 3 3 6 1 6 -6 0 -7 5 -9 11
-6 6 4 8 20 4 38 -5 24 -4 28 4 17 10 -13 11 -13 11 0 1 12 3 11 14 -3 13 -16
14 -15 13 17 -1 20 5 42 12 49 11 10 13 -4 7 -80 -3 -57 -2 -94 4 -98 6 -4 10
38 10 116 0 133 9 161 11 36z m652 68 c-3 -9 -8 -14 -10 -11 -3 3 -2 9 2 15 9
16 15 13 8 -4z m28 -62 c2 -51 -1 -76 -10 -85 -11 -11 -12 -6 -9 24 2 22 -1
39 -7 42 -8 3 -10 -4 -7 -19 3 -17 0 -23 -12 -21 -24 3 -39 22 -30 38 6 9 10
6 15 -12 7 -25 7 -25 8 -2 1 15 9 26 21 29 22 6 27 19 9 25 -7 2 -7 12 2 31 7
15 13 26 15 24 1 -1 4 -35 5 -74z m90 40 c-10 -17 -10 -16 -11 3 0 23 13 41
18 25 2 -6 -1 -18 -7 -28z m-22 -26 c-1 -36 -2 -38 -9 -17 -12 36 -12 72 0 65
6 -3 10 -25 9 -48z m611 49 c0 -3 -4 -8 -10 -11 -5 -3 -10 -1 -10 4 0 6 5 11
10 11 6 0 10 -2 10 -4z m-1327 -48 c-2 -4 5 -16 17 -28 11 -11 20 -30 19 -42
0 -19 -3 -16 -15 12 l-14 35 4 -36 c2 -20 0 -42 -5 -50 -10 -15 -14 12 -10 65
2 18 -1 26 -8 21 -12 -7 -15 23 -4 51 6 16 7 16 13 -2 4 -10 6 -22 3 -26z m64
10 c-3 -7 -5 -2 -5 12 0 14 2 19 5 13 2 -7 2 -19 0 -25z m1343 7 c-7 -9 -15
-13 -18 -10 -3 2 1 11 8 20 7 9 15 13 18 10 3 -2 -1 -11 -8 -20z m53 0 c-18
-25 -40 -35 -27 -12 14 24 27 37 36 37 5 0 1 -11 -9 -25z m-790 -15 c3 -11 1
-20 -4 -20 -5 0 -9 9 -9 20 0 11 2 20 4 20 2 0 6 -9 9 -20z m241 -48 c-4 -26
-9 -39 -11 -29 -5 19 -29 23 -35 5 -7 -20 -28 2 -28 30 0 18 3 23 8 14 5 -8
16 -10 27 -6 13 5 16 4 11 -4 -4 -7 -1 -12 8 -12 9 0 16 9 16 21 0 11 -4 18
-9 14 -5 -3 -12 -1 -16 4 -3 5 3 14 12 20 24 13 27 2 17 -57z m27 31 c-8 -15
-10 -15 -11 -2 0 17 10 32 18 25 2 -3 -1 -13 -7 -23z m-1280 -16 c-10 -9 -11
-8 -5 6 3 10 9 15 12 12 3 -3 0 -11 -7 -18z m1489 20 c0 -2 -10 -12 -22 -23
l-23 -19 19 23 c18 21 26 27 26 19z m10 -42 c-18 -19 -36 -32 -39 -30 -2 3 11
21 29 40 18 19 36 32 39 30 2 -3 -11 -21 -29 -40z m90 35 c0 -5 -5 -10 -11
-10 -5 0 -7 5 -4 10 3 6 8 10 11 10 2 0 4 -4 4 -10z m-999 -83 c-7 -7 -9 2 -7
29 5 52 8 56 13 15 3 -18 0 -38 -6 -44z m433 65 c3 -5 -1 -9 -9 -9 -8 0 -15 4
-15 9 0 4 4 8 9 8 6 0 12 -4 15 -8z m80 -27 c-5 -20 -9 -23 -15 -13 -6 9 -9 9
-9 1 0 -6 5 -15 10 -18 17 -10 11 -23 -8 -18 -11 3 -19 15 -20 34 -2 23 2 29
18 29 11 0 20 5 20 12 0 6 2 9 5 6 4 -3 3 -18 -1 -33z m-604 3 c0 -19 -2 -20
-10 -8 -13 19 -13 30 0 30 6 0 10 -10 10 -22z m-39 -19 c-9 -22 -10 -22 -10
-3 -1 11 2 24 6 27 12 12 14 0 4 -24z m-265 -14 c-17 -18 -22 -50 -6 -40 6 3
10 -3 10 -14 0 -12 -4 -21 -9 -21 -4 0 -6 -12 -4 -27 4 -22 2 -25 -6 -13 -8
11 -10 4 -8 -32 2 -44 2 -45 -17 -32 -27 19 -47 18 -39 -1 3 -9 2 -15 -3 -14
-18 4 -44 -14 -44 -29 0 -15 -1 -15 -16 0 -18 17 -11 78 8 78 7 0 9 20 5 58
-4 44 -3 51 5 30 5 -16 14 -28 19 -28 4 0 6 -7 3 -15 -4 -8 -1 -15 5 -15 7 0
11 24 12 63 0 44 3 56 9 42 8 -18 9 -18 10 5 1 21 4 17 20 -20 16 -37 19 -40
19 -19 1 34 24 80 35 69 5 -5 2 -16 -8 -25z m1311 -5 c-15 -18 -32 -26 -54
-27 -29 -1 -31 1 -20 18 7 11 13 15 15 9 2 -6 11 -6 25 2 12 6 24 12 27 12 3
1 4 4 3 7 -1 3 4 6 12 6 10 0 7 -8 -8 -27z m673 -20 c0 -5 -7 -7 -15 -4 -8 4
-12 10 -9 15 6 11 24 2 24 -11z m-1781 -40 c1 -13 0 -13 -9 0 -5 8 -9 24 -9
35 l0 20 9 -20 c5 -11 9 -27 9 -35z m121 29 c0 -6 -4 -7 -10 -4 -5 3 -10 11
-10 16 0 6 5 7 10 4 6 -3 10 -11 10 -16z m-623 -28 c0 -28 -3 -38 -13 -34 -9
3 -11 -3 -8 -19 5 -23 4 -23 -6 1 -6 14 -7 27 -2 30 5 3 12 18 16 34 9 38 13
34 13 -12z m88 -25 c3 -38 25 -29 25 11 1 26 3 33 9 23 10 -16 16 -92 13 -155
-3 -51 -18 -31 -27 37 -4 26 -10 46 -14 43 -5 -2 -13 7 -20 21 -6 14 -16 22
-21 19 -11 -7 -14 48 -3 58 9 9 36 -32 38 -57z m467 32 c-9 -9 -12 -7 -12 12
0 19 3 21 12 12 9 -9 9 -15 0 -24z m672 17 c3 -8 1 -15 -4 -15 -6 0 -10 7 -10
15 0 8 2 15 4 15 2 0 6 -7 10 -15z m416 0 c-7 -9 -28 -23 -46 -31 -19 -9 -34
-20 -34 -25 0 -5 -4 -9 -10 -9 -24 0 -7 20 35 40 25 12 47 26 51 31 3 5 8 9
11 9 3 0 0 -7 -7 -15z m-1179 -17 c0 -13 2 -39 5 -58 3 -21 1 -31 -5 -25 -12
13 -20 105 -9 105 4 0 8 -10 9 -22z m1256 9 c0 -7 -10 -14 -21 -14 -21 -2 -21
-2 -2 13 24 17 23 17 23 1z m-1104 -27 c3 -11 1 -18 -4 -14 -5 3 -9 12 -9 20
0 20 7 17 13 -6z m-737 -40 c4 0 4 7 0 15 -9 25 1 17 22 -17 l21 -33 9 25 c8
19 11 21 16 10 11 -30 11 -63 -1 -67 -8 -3 -13 3 -13 14 -1 17 -2 17 -17 -2
-9 -11 -14 -14 -11 -5 3 8 -1 21 -8 28 -11 10 -13 10 -11 -5 1 -10 -1 -19 -5
-20 -5 -2 -7 -1 -5 2 1 2 -6 10 -16 17 -9 7 -19 28 -22 47 l-4 34 20 -22 c11
-11 22 -21 25 -21z m1774 28 c0 -4 -4 -8 -9 -8 -6 0 -12 4 -15 8 -3 5 1 9 9 9
8 0 15 -4 15 -9z m-1743 -20 c-3 -8 -6 -5 -6 6 -1 11 2 17 5 13 3 -3 4 -12 1
-19z m1823 17 c0 -2 -10 -10 -22 -16 -21 -11 -22 -11 -9 4 13 16 31 23 31 12z
m-983 -27 c-3 -8 -6 -5 -6 6 -1 11 2 17 5 13 3 -3 4 -12 1 -19z m885 -7 c-23
-24 -46 -16 -25 9 9 10 22 16 29 13 9 -3 8 -9 -4 -22z m-1615 -3 c-3 -8 -6 -5
-6 6 -1 11 2 17 5 13 3 -3 4 -12 1 -19z m513 2 c-6 -11 -12 -20 -13 -20 -1 0
-10 9 -20 20 -16 19 -16 20 13 20 28 0 30 -2 20 -20z m47 -2 c-3 -8 -6 -5 -6
6 -1 11 2 17 5 13 3 -3 4 -12 1 -19z m18 -35 c-9 -50 -17 -34 -9 18 4 24 9 38
12 31 2 -7 1 -29 -3 -49z m-874 -17 c15 -16 10 -29 -6 -16 -8 7 -14 27 -14 44
2 27 2 28 6 6 3 -14 9 -29 14 -34z m90 47 c1 -5 3 -17 4 -28 1 -11 5 -31 9
-45 7 -24 7 -24 -8 -5 -8 11 -20 25 -26 32 -14 17 -12 26 5 19 8 -3 15 -1 15
4 0 6 -4 10 -10 10 -5 0 -10 5 -10 10 0 12 19 14 21 3z m889 -13 c0 -13 -5
-18 -15 -14 -12 5 -13 10 -4 20 15 19 19 18 19 -6z m113 -60 c-3 -30 -9 -57
-13 -60 -4 -3 -11 -14 -17 -24 -8 -15 -10 -7 -9 36 1 38 5 54 13 51 9 -4 9 1
0 21 -8 17 -13 21 -15 11 -5 -22 -17 -18 -19 5 -1 11 2 18 8 15 5 -4 9 0 10 7
0 10 2 10 6 1 7 -19 23 -16 23 5 0 14 2 15 10 2 5 -8 7 -40 3 -70z m711 55
c-19 -29 -23 -31 -20 -9 2 13 22 33 34 34 1 0 -5 -11 -14 -25z m-799 -5 c-4
-12 2 -39 15 -66 15 -30 20 -55 16 -75 -4 -22 -2 -28 7 -23 6 4 4 -2 -5 -13
-10 -11 -18 -26 -18 -34 0 -8 -5 -21 -10 -29 -6 -10 -7 3 -3 40 3 30 10 57 14
60 10 7 -6 79 -20 93 -12 12 -15 50 -4 60 12 12 14 7 8 -13z m843 0 c-7 -11
-20 -20 -28 -20 -10 0 -7 7 10 20 31 25 33 25 18 0z m97 -10 c-10 -11 -21 -18
-25 -15 -4 2 -18 -7 -30 -20 -13 -14 -28 -25 -34 -25 -6 0 4 13 23 29 19 17
38 28 43 25 4 -3 11 2 14 10 3 9 11 16 17 16 5 0 2 -9 -8 -20z m-1817 -25 c-3
-3 -9 2 -12 12 -6 14 -5 15 5 6 7 -7 10 -15 7 -18z m-66 -25 c12 -19 15 -29 8
-22 -8 6 -22 12 -32 12 -10 0 -18 5 -18 11 0 5 5 7 11 3 7 -4 7 1 -1 16 -20
37 8 20 32 -20z m-102 5 c0 -8 -4 -17 -10 -20 -6 -4 -10 5 -10 20 0 15 4 24
10 20 6 -3 10 -12 10 -20z m730 5 c0 -11 -2 -20 -4 -20 -2 0 -6 9 -9 20 -3 11
-1 20 4 20 5 0 9 -9 9 -20z m17 -2 c-3 -8 -6 -5 -6 6 -1 11 2 17 5 13 3 -3 4
-12 1 -19z m283 -17 c0 -14 -2 -14 -11 -1 -9 12 -10 10 -6 -8 3 -13 3 -21 0
-18 -4 3 -12 1 -20 -5 -10 -9 -13 -8 -13 0 0 7 -5 9 -12 5 -7 -4 -8 -3 -4 4 4
7 14 12 23 12 10 0 14 6 10 19 -3 14 0 17 14 14 11 -3 19 -13 19 -22z m921 -4
c-10 -9 -11 -8 -5 6 3 10 9 15 12 12 3 -3 0 -11 -7 -18z m-1016 -27 c0 -41 -8
-52 -19 -25 -4 11 11 65 18 65 1 0 1 -18 1 -40z m-890 10 c3 -5 2 -10 -4 -10
-5 0 -13 5 -16 10 -3 6 -2 10 4 10 5 0 13 -4 16 -10z m280 0 c3 -5 1 -10 -4
-10 -6 0 -11 5 -11 10 0 6 2 10 4 10 3 0 8 -4 11 -10z m473 -25 c12 19 12 18
6 -5 -4 -14 -9 -31 -11 -37 -3 -7 1 -13 8 -13 7 0 10 -3 6 -6 -6 -6 16 -34 27
-34 3 0 6 12 6 28 0 19 3 23 9 13 5 -8 5 -27 0 -45 -5 -17 -9 -50 -9 -73 0
-23 -4 -45 -10 -48 -6 -4 -7 6 -3 26 4 21 2 34 -7 39 -10 6 -11 12 -3 22 9 10
7 18 -4 33 -15 20 -15 20 -8 -2 3 -13 2 -23 -3 -23 -6 0 -13 24 -17 53 -4 28
-11 60 -17 70 -5 9 -5 23 -1 30 5 8 10 1 13 -18 5 -29 6 -29 18 -10z m-802
-42 c-7 -7 -26 7 -26 19 0 6 6 6 15 -2 9 -7 13 -15 11 -17z m1148 -86 c2 -23
0 -33 -5 -26 -4 8 -11 11 -14 7 -3 -3 2 -13 11 -22 9 -9 14 -20 11 -23 -3 -3
1 -12 9 -20 8 -9 12 -18 8 -22 -4 -3 -9 0 -11 7 -3 6 -9 12 -14 12 -6 0 -5 -8
1 -20 6 -11 8 -20 4 -20 -11 0 -43 45 -43 60 0 10 3 8 8 -4 5 -13 10 -16 15
-8 7 12 -13 52 -28 52 -4 0 -3 7 5 16 10 13 10 17 0 24 -9 5 -10 9 -2 14 6 4
15 -3 21 -16 7 -17 9 -8 5 37 -4 52 -3 55 5 25 6 -19 12 -52 14 -73z m-241 70
c4 3 7 1 7 -6 0 -21 -33 -8 -36 14 -3 19 -2 19 10 3 7 -10 16 -15 19 -11z
m-1016 7 c-3 -3 -12 -4 -19 -1 -8 3 -5 6 6 6 11 1 17 -2 13 -5z m1101 -54 c0
-8 -6 -1 -13 15 -7 17 -10 34 -7 40 6 10 20 -27 20 -55z m-1028 17 c0 -5 -7
-6 -16 -3 -9 3 -24 6 -35 6 -11 0 -16 5 -13 14 4 11 11 12 35 3 16 -6 29 -15
29 -20z m1217 11 c-3 -8 -6 -5 -6 6 -1 11 2 17 5 13 3 -3 4 -12 1 -19z m-93
-79 c1 -54 0 -58 -10 -32 -11 27 -7 110 4 98 3 -3 6 -32 6 -66z m-1135 15 c12
-11 11 -12 -10 -7 -13 4 -35 12 -49 20 -21 11 -27 11 -35 -1 -11 -15 -45 -4
-45 14 0 24 107 5 139 -26z m76 25 c15 -14 -7 -10 -35 7 l-25 15 25 -7 c14 -3
29 -10 35 -15z m752 -11 c-3 -7 -5 -2 -5 12 0 14 2 19 5 13 2 -7 2 -19 0 -25z
m155 -8 c14 -32 28 -40 28 -16 0 23 16 27 17 5 2 -20 -31 -44 -46 -34 -5 3 -7
15 -3 27 4 16 2 19 -8 13 -9 -5 -11 -4 -6 3 4 7 2 12 -3 12 -6 0 -11 5 -11 10
0 21 19 9 32 -20z m1028 4 c0 -8 -4 -14 -10 -14 -5 0 -10 9 -10 21 0 11 5 17
10 14 6 -3 10 -13 10 -21z m154 -7 c4 4 3 -3 -1 -15 -27 -71 -183 -173 -298
-193 -33 -6 -75 -15 -94 -21 -28 -9 -36 -7 -52 9 -19 19 -19 19 23 42 24 13
54 34 68 46 35 32 77 39 106 20 13 -8 24 -14 25 -13 0 2 2 11 4 21 7 37 14 45
48 51 20 4 37 11 39 17 2 5 15 11 30 13 15 1 33 8 41 14 8 7 17 8 21 4 4 -4 7
-2 6 3 -5 23 2 29 14 13 7 -10 16 -15 20 -11z m-234 -3 c0 -9 -9 -18 -20 -21
-11 -3 -20 -9 -20 -13 0 -7 -50 -33 -55 -28 -9 9 69 77 88 78 4 0 7 -7 7 -16z
m-999 -28 c1 -11 1 -32 0 -46 -1 -18 1 -21 7 -12 6 9 9 0 9 -27 0 -23 -4 -44
-10 -48 -6 -3 -7 -2 -4 4 4 6 0 18 -7 28 -8 11 -11 34 -8 60 2 25 0 45 -7 49
-16 11 -13 26 4 20 8 -4 15 -16 16 -28z m1311 17 c-5 -10 -7 -24 -5 -30 3 -7
-2 -13 -11 -13 -9 0 -16 -7 -16 -15 0 -14 -46 -32 -56 -22 -3 3 4 14 15 24 12
9 21 23 21 30 0 7 12 19 28 27 35 19 34 19 24 -1z m-2248 -23 c5 -5 -8 -5 -29
0 -21 5 -42 13 -48 19 -13 13 63 -6 77 -19z m76 2 l22 -18 -24 -1 c-12 0 -17
1 -9 4 10 4 7 9 -10 19 -13 7 -19 13 -13 14 7 0 22 -8 34 -18z m890 -7 c0 -14
-4 -25 -9 -25 -4 0 -6 11 -3 25 2 14 6 25 8 25 2 0 4 -11 4 -25z m146 -38 c1
-30 -3 -44 -13 -44 -14 0 -17 27 -7 65 10 35 19 26 20 -21z m128 27 c3 -8 2
-12 -4 -9 -6 3 -10 10 -10 16 0 14 7 11 14 -7z m-1350 -7 c-3 -9 8 -17 33 -23
21 -5 37 -15 36 -22 -2 -7 2 -12 7 -12 6 0 10 -4 10 -8 0 -9 -62 -3 -70 7 -3
4 -17 12 -32 18 -23 10 -28 10 -28 -1 0 -13 -58 -31 -68 -21 -3 3 9 8 27 11
25 5 29 9 20 20 -9 11 -6 14 15 14 16 0 26 5 26 15 0 8 7 15 15 15 8 0 12 -6
9 -13z m81 -8 c5 -6 3 -9 -7 -9 -24 0 -48 11 -48 22 0 10 39 1 55 -13z m942
-11 c-3 -7 -5 -2 -5 12 0 14 2 19 5 13 2 -7 2 -19 0 -25z m92 15 c-4 -23 3
-35 16 -29 9 3 15 0 15 -10 0 -8 -4 -13 -9 -10 -5 4 -11 0 -13 -6 -3 -8 -9 -4
-17 10 -7 13 -10 30 -7 38 6 15 17 20 15 7z m124 -23 c3 -11 1 -18 -4 -14 -5
3 -9 12 -9 20 0 20 7 17 13 -6z m-1073 -8 c-8 -3 -17 -9 -20 -13 -7 -10 -52 0
-46 10 3 4 22 7 43 8 21 0 31 -2 23 -5z m1020 -12 c0 -5 -2 -10 -4 -10 -3 0
-8 5 -11 10 -3 6 -1 10 4 10 6 0 11 -4 11 -10z m90 1 c0 -6 -4 -13 -10 -16 -5
-3 -10 1 -10 9 0 9 5 16 10 16 6 0 10 -4 10 -9z m-1400 -11 c0 -5 -7 -7 -15
-4 -8 4 -15 8 -15 10 0 2 7 4 15 4 8 0 15 -4 15 -10z m2389 -6 c6 4 11 2 11
-4 0 -7 -9 -14 -20 -17 -11 -3 -18 -8 -16 -12 3 -4 -15 -13 -40 -20 -36 -11
-42 -16 -33 -27 13 -15 9 -17 -15 -8 -9 3 -13 10 -10 15 8 13 -10 11 -26 -3
-12 -11 -12 -10 0 5 7 10 27 24 44 31 17 8 42 23 55 35 17 15 27 18 32 10 4
-6 12 -8 18 -5z m-1159 -9 c0 -8 -4 -15 -10 -15 -5 0 -10 7 -10 15 0 8 5 15
10 15 6 0 10 -7 10 -15z m-1103 -1 c-3 -3 -12 -4 -19 -1 -8 3 -5 6 6 6 11 1
17 -2 13 -5z m1255 -24 c5 0 7 -7 4 -16 -4 -9 -1 -24 6 -33 11 -15 10 -15 -6
0 -9 9 -19 31 -21 50 -2 19 -1 26 1 17 3 -10 10 -18 16 -18z m28 20 c0 -5 -5
-10 -11 -10 -5 0 -7 5 -4 10 3 6 8 10 11 10 2 0 4 -4 4 -10z m-71 -16 c7 5 11
-1 11 -16 0 -19 -2 -20 -11 -8 -8 12 -12 12 -16 2 -4 -10 -9 -9 -19 5 -13 16
-14 15 -9 -12 4 -24 3 -26 -4 -10 -15 31 -13 48 4 41 8 -3 15 0 15 7 0 8 3 8
9 -2 5 -7 14 -10 20 -7z m101 6 c0 -5 -2 -10 -4 -10 -3 0 -8 5 -11 10 -3 6 -1
10 4 10 6 0 11 -4 11 -10z m-1275 -20 c-41 -19 -55 -18 -55 3 0 7 18 13 48 14
l47 2 -40 -19z m-85 -5 c0 -8 -9 -15 -20 -15 -17 0 -19 2 -8 15 17 19 28 19
28 0z m1074 0 c-4 -8 -1 -15 6 -15 6 0 8 -5 5 -10 -4 -6 -11 -8 -16 -5 -12 8
-12 45 1 45 5 0 7 -7 4 -15z m79 -5 c-3 -11 -7 -20 -9 -20 -2 0 -4 9 -4 20 0
11 4 20 9 20 5 0 7 -9 4 -20z m202 8 c5 4 5 1 1 -6 -6 -10 -11 -10 -22 -1 -8
6 -14 14 -14 16 0 3 6 0 13 -6 8 -6 18 -7 22 -3z m-169 -42 c-6 -24 -36 -32
-36 -10 0 8 6 11 15 8 11 -5 15 1 16 22 0 16 3 23 6 16 3 -7 2 -23 -1 -36z
m-1046 15 c22 -7 20 -8 -17 -12 -48 -5 -66 -1 -57 12 6 10 38 10 74 0z m977
-13 c-3 -8 -6 -5 -6 6 -1 11 2 17 5 13 3 -3 4 -12 1 -19z m1166 15 c-7 -2 -19
-2 -25 0 -7 3 -2 5 12 5 14 0 19 -2 13 -5z m-1041 -38 c-2 -19 -12 -40 -21
-47 -9 -7 -13 -8 -8 -3 4 4 -1 17 -10 27 -14 15 -14 21 -3 31 7 6 10 7 7 2 -3
-6 -2 -17 4 -25 7 -12 9 -11 9 6 0 15 16 44 25 44 1 0 -1 -16 -3 -35z m19 -2
c-12 -20 -14 -14 -5 12 4 9 9 14 11 11 3 -2 0 -13 -6 -23z m-1251 7 c0 -5 -5
-10 -11 -10 -5 0 -7 5 -4 10 3 6 8 10 11 10 2 0 4 -4 4 -10z m150 6 c0 -3 -4
-8 -10 -11 -5 -3 -10 -1 -10 4 0 6 5 11 10 11 6 0 10 -2 10 -4z m156 -28 c5
-7 0 -9 -14 -6 -12 3 -22 3 -24 -1 -2 -4 -22 -5 -45 -3 -50 5 -48 22 3 22 19
0 34 5 34 10 0 13 35 -4 46 -22z m979 22 c3 -5 1 -10 -4 -10 -6 0 -11 5 -11
10 0 6 2 10 4 10 3 0 8 -4 11 -10z m-165 -19 c0 -11 -4 -23 -10 -26 -6 -4 -10
5 -10 19 0 14 5 26 10 26 6 0 10 -9 10 -19z m1375 -1 c-3 -5 -10 -10 -16 -10
-5 0 -9 5 -9 10 0 6 7 10 16 10 8 0 12 -4 9 -10z m-1345 -42 c0 -25 -17 -31
-23 -8 -3 12 -1 18 5 14 6 -4 8 2 3 17 -5 19 -4 21 4 9 6 -8 11 -23 11 -32z
m-700 22 c18 -12 2 -12 -25 0 -13 6 -15 9 -5 9 8 0 22 -4 30 -9z m1767 -2
c-15 -5 -25 -14 -21 -19 3 -5 0 -9 -5 -9 -15 0 -14 27 2 33 6 3 21 5 32 5 15
0 13 -2 -8 -10z m-2017 -8 c0 -5 -12 -10 -27 -9 -25 0 -26 1 -8 9 27 12 35 12
35 0z m2187 4 c-3 -3 -12 -4 -19 -1 -8 3 -5 6 6 6 11 1 17 -2 13 -5z m76 -1
c-7 -2 -21 -2 -30 0 -10 3 -4 5 12 5 17 0 24 -2 18 -5z m-168 -14 c15 -7 11
-8 -15 -3 -26 4 -31 3 -20 -5 13 -9 13 -11 -2 -11 -10 0 -18 -4 -18 -10 0 -5
-10 -10 -22 -10 -17 0 -19 3 -9 9 7 5 11 13 7 19 -11 18 46 27 79 11z m-1109
-25 c-3 -13 -9 -31 -14 -40 -7 -12 -9 -6 -9 23 0 26 5 40 13 40 9 0 12 -9 10
-23z m36 -16 c-8 -8 -9 -4 -5 13 4 13 8 18 11 10 2 -7 -1 -18 -6 -23z m-119
-8 c-3 -11 -10 -23 -16 -27 -5 -3 -8 -2 -5 3 3 5 8 17 11 27 9 24 16 22 10 -3z
m1191 -5 c-18 -14 -44 -20 -44 -10 0 7 54 34 59 29 3 -2 -4 -11 -15 -19z
m-439 5 c3 -6 -1 -7 -9 -4 -18 7 -21 14 -7 14 6 0 13 -4 16 -10z m-1413 -24
c7 -2 25 -7 41 -10 33 -8 37 -25 3 -19 -34 7 -40 -11 -19 -54 14 -31 18 -34
21 -18 6 33 16 37 99 39 117 4 148 -19 104 -75 -15 -19 -35 -27 -93 -37 -154
-25 -194 -24 -279 9 -105 40 -152 98 -121 147 9 14 87 13 110 -2 9 -5 15 -1
19 14 5 20 10 21 53 16 27 -3 54 -8 62 -10z m1901 7 c-7 -2 -21 -2 -30 0 -10
3 -4 5 12 5 17 0 24 -2 18 -5z m-53 -43 l25 -8 -27 -1 c-14 -1 -33 -3 -41 -6
-8 -4 -14 0 -14 10 0 16 17 18 57 5z m-265 -10 c-3 -5 -14 -10 -23 -9 -14 0
-13 2 3 9 27 11 27 11 20 0z m175 -5 c0 -2 -14 -3 -31 -3 -17 1 -25 4 -18 8
10 7 49 2 49 -5z m155 5 c18 -8 17 -9 -7 -9 -16 -1 -28 4 -28 9 0 12 8 12 35
0z m-365 -29 c0 -3 -12 -7 -28 -7 -15 -1 -21 1 -14 3 6 3 10 8 7 13 -3 4 4 6
15 3 11 -3 20 -8 20 -12z m287 -13 c-7 -4 -7 -8 -2 -8 15 0 -18 -20 -33 -20
-7 0 -10 5 -7 10 3 6 4 10 1 10 -2 0 -13 3 -23 7 -15 6 -16 5 -5 -9 10 -13 10
-18 1 -24 -8 -4 -9 -3 -5 4 5 8 -2 12 -21 12 -22 0 -25 -2 -13 -10 13 -8 12
-10 -5 -12 -58 -5 -125 -2 -125 6 0 5 24 6 53 3 35 -4 47 -3 37 3 -12 8 -11
10 7 10 12 0 28 6 34 13 7 7 35 12 64 12 29 0 48 -3 42 -7z m-2150 -4 c-3 -3
-12 -4 -19 -1 -8 3 -5 6 6 6 11 1 17 -2 13 -5z m-133 -47 c-8 -5 -25 -6 -37
-4 -18 3 -16 5 7 6 25 1 27 3 15 18 -13 15 -12 15 8 2 19 -11 20 -15 7 -22z
m1958 23 c2 -5 21 -12 43 -15 23 -4 48 -15 58 -28 11 -12 21 -17 25 -11 12 17
116 33 153 23 l34 -9 -38 5 c-22 2 -35 0 -32 -6 4 -5 -4 -9 -17 -9 -13 0 -30
-6 -37 -12 -11 -10 -14 -10 -18 0 -5 14 -33 17 -33 3 0 -12 98 -33 113 -24 7
4 7 0 -1 -9 -13 -17 -55 -21 -45 -5 3 5 -8 7 -23 5 -17 -2 -28 -8 -26 -15 1
-7 -8 -13 -20 -14 l-23 0 23 -16 c41 -29 18 -56 -32 -37 -29 11 -17 23 14 14
18 -5 30 -5 30 1 0 5 -7 9 -15 9 -8 0 -15 4 -15 10 0 5 -11 12 -25 16 -14 3
-25 10 -25 15 0 6 8 6 19 0 20 -11 31 -5 31 15 0 13 -67 40 -77 31 -3 -3 10
-10 28 -16 19 -5 26 -10 17 -10 -9 -1 -29 4 -45 10 l-28 11 29 15 c22 12 26
17 15 24 -9 6 -18 3 -25 -6 -9 -12 -17 -13 -38 -5 -34 12 -33 18 2 14 15 -2
20 -1 12 3 -8 3 -21 12 -28 20 -11 11 -11 13 1 13 9 0 17 -4 19 -10z m-1792
-20 c8 -5 12 -11 10 -14 -3 -2 -14 2 -24 10 -22 15 -10 19 14 4z m2103 3 c-7
-2 -21 -2 -30 0 -10 3 -4 5 12 5 17 0 24 -2 18 -5z m-1498 -33 c3 -5 1 -10 -4
-10 -6 0 -11 5 -11 10 0 6 2 10 4 10 3 0 8 -4 11 -10z m-738 -6 c-3 -3 -12 -4
-19 -1 -8 3 -5 6 6 6 11 1 17 -2 13 -5z m136 -1 c-7 -2 -19 -2 -25 0 -7 3 -2
5 12 5 14 0 19 -2 13 -5z m7 -31 c-8 -3 -2 -9 16 -17 l29 -12 -39 -17 c-52
-22 -59 -20 -16 5 26 15 29 18 10 13 -14 -4 -22 -3 -18 1 4 5 2 15 -5 23 -9
13 -9 14 1 8 7 -4 12 -2 12 4 0 6 5 8 12 4 9 -6 9 -9 -2 -12z m160 -6 c0 -2
-7 -7 -16 -10 -8 -3 -12 -2 -9 4 6 10 25 14 25 6z m410 -21 c0 -8 5 -15 10
-15 6 0 10 -4 10 -10 0 -5 -7 -10 -15 -10 -8 0 -15 4 -15 9 0 5 -3 16 -6 25
-3 9 -1 16 5 16 6 0 11 -7 11 -15z m-665 -15 c-3 -5 2 -11 12 -11 17 -1 17 -2
0 -6 -10 -3 -14 -10 -11 -16 4 -7 3 -9 -1 -4 -13 12 -16 47 -4 47 5 0 7 -4 4
-10z m1738 -5 c-3 -9 -8 -14 -10 -11 -3 3 -2 9 2 15 9 16 15 13 8 -4z m406 11
c-2 -2 -22 -6 -44 -9 -27 -4 -35 -3 -25 3 14 9 79 15 69 6z m-1975 -15 c3 -5
-1 -11 -9 -15 -9 -3 -15 0 -15 9 0 16 16 20 24 6z m1541 -10 c-3 -6 -11 -11
-16 -11 -5 0 -4 6 3 14 14 16 24 13 13 -3z m388 -8 c-7 -2 -19 -2 -25 0 -7 3
-2 5 12 5 14 0 19 -2 13 -5z m-2014 -19 c2 -2 -10 -4 -27 -4 -17 0 -34 4 -37
10 -5 9 53 3 64 -6z m-174 -14 c-15 -6 -8 -9 30 -10 44 -1 47 -3 25 -11 -14
-6 -33 -8 -42 -5 -10 2 -16 0 -12 -5 3 -5 -2 -9 -10 -9 -10 0 -13 6 -10 15 4
9 0 15 -7 15 -11 0 -11 3 1 10 8 5 22 9 30 9 10 0 8 -3 -5 -9z m2115 -10 c0
-5 -2 -10 -4 -10 -3 0 -8 5 -11 10 -3 6 -1 10 4 10 6 0 11 -4 11 -10z m-1970
-4 c0 -2 -7 -7 -16 -10 -8 -3 -12 -2 -9 4 6 10 25 14 25 6z m1647 -28 c-3 -7
-5 -2 -5 12 0 14 2 19 5 13 2 -7 2 -19 0 -25z m257 17 c25 -19 9 -19 -24 0
-14 8 -19 14 -10 14 8 0 24 -6 34 -14z m106 11 c0 -2 -7 -6 -15 -10 -8 -3 -15
-1 -15 4 0 6 7 10 15 10 8 0 15 -2 15 -4z m-2066 -27 c-4 -8 1 -9 17 -4 19 5
21 4 9 -4 -8 -6 -23 -11 -32 -11 -9 0 -21 -6 -25 -12 -8 -13 -103 -19 -103 -7
0 8 38 19 70 19 14 0 34 7 44 15 24 18 30 19 20 4z m1857 -10 c11 -11 18 -23
15 -26 -3 -4 -17 6 -30 20 -29 32 -16 37 15 6z m165 5 c-3 -9 -6 -18 -6 -20 0
-2 -7 -4 -15 -4 -8 0 -15 7 -15 16 0 8 5 12 10 9 6 -3 10 -1 10 4 0 6 5 11 11
11 6 0 8 -7 5 -16z m-2149 0 c-3 -3 -12 -4 -19 -1 -8 3 -5 6 6 6 11 1 17 -2
13 -5z m2068 -4 c3 -6 -1 -7 -9 -4 -18 7 -21 14 -7 14 6 0 13 -4 16 -10z
m-645 -9 c0 -5 -11 -11 -25 -13 -14 -3 -25 -2 -25 3 0 4 10 10 23 12 12 2 23
5 25 6 1 0 2 -3 2 -8z m660 -25 c0 -2 -7 -7 -16 -10 -8 -3 -12 -2 -9 4 6 10
25 14 25 6z m-1818 -33 c-3 -16 -7 -22 -10 -15 -4 13 4 42 11 42 2 0 2 -12 -1
-27z m1068 23 c0 -2 -28 -22 -62 -44 -35 -23 -75 -51 -90 -64 -54 -47 -67 -57
-90 -68 -22 -11 -21 -10 3 12 95 85 239 184 239 164z m780 -16 c0 -4 -9 -6
-21 -3 -15 4 -17 8 -8 14 14 8 29 3 29 -11z m-517 3 c-13 -2 -35 -2 -50 0 -16
2 -5 4 22 4 28 0 40 -2 28 -4z m-1434 -19 c9 -9 -45 -3 -59 6 -11 8 -5 9 20 5
19 -3 36 -8 39 -11z m71 6 c0 -5 -10 -10 -22 -9 -22 0 -22 1 -3 9 11 5 21 9
23 9 1 1 2 -3 2 -9z m170 -5 c3 -6 -11 -9 -32 -7 -29 3 -38 0 -38 -12 0 -9 6
-17 13 -17 6 -1 17 -2 22 -4 6 -1 20 -3 33 -3 13 -1 20 -6 17 -12 -3 -5 1 -10
9 -10 10 0 13 6 10 15 -5 11 1 15 19 15 14 0 29 -5 33 -11 5 -8 -1 -10 -19 -5
-22 5 -25 3 -22 -15 3 -15 0 -19 -11 -15 -9 3 -28 6 -42 7 -25 0 -25 1 -7 10
15 7 10 8 -17 4 -31 -5 -38 -3 -38 10 0 9 -4 14 -9 10 -5 -3 -12 -1 -16 5 -3
5 -1 10 4 10 6 0 11 5 11 11 0 6 -9 8 -22 4 -22 -5 -21 -5 2 9 26 15 92 16
100 1z m1754 7 c2 -4 -4 -9 -15 -9 -11 -1 -17 2 -14 8 7 11 22 12 29 1z
m-2030 -33 c5 -5 -5 -4 -24 1 -18 5 -35 12 -39 16 -9 9 53 -7 63 -17z m162
-19 c8 0 14 -5 14 -10 0 -6 15 -18 33 -26 17 -8 23 -13 12 -11 -11 1 -26 -4
-33 -13 -8 -8 -11 -9 -7 -2 3 7 -1 15 -10 18 -13 5 -14 9 -4 15 10 6 4 12 -20
22 -21 9 -28 16 -20 19 8 3 16 1 17 -3 2 -5 10 -9 18 -9z m1288 5 c-4 -8 -8
-15 -10 -15 -2 0 -4 7 -4 15 0 8 4 15 10 15 5 0 7 -7 4 -15z m-1507 -11 c-3
-3 -12 -4 -19 -1 -8 3 -5 6 6 6 11 1 17 -2 13 -5z m168 -4 c3 -5 1 -10 -4 -10
-6 0 -11 5 -11 10 0 6 2 10 4 10 3 0 8 -4 11 -10z m-58 -6 c-3 -3 -12 -4 -19
-1 -8 3 -5 6 6 6 11 1 17 -2 13 -5z m776 -1 c-7 -2 -19 -2 -25 0 -7 3 -2 5 12
5 14 0 19 -2 13 -5z m-443 -13 c0 -5 -7 -7 -15 -4 -8 4 -15 8 -15 10 0 2 7 4
15 4 8 0 15 -4 15 -10z m960 -10 c0 -4 11 -12 25 -18 28 -13 30 -10 15 19 -7
13 -7 19 0 19 5 0 10 -4 10 -9 0 -6 10 -8 21 -6 28 6 40 -2 32 -20 -6 -18 -33
-20 -33 -2 0 6 -8 0 -18 -15 -17 -28 -32 -36 -32 -18 0 6 -5 10 -11 10 -5 0
-8 -4 -4 -9 3 -5 -5 -13 -17 -17 -35 -12 -49 -13 -43 -4 3 5 -4 8 -15 7 -11
-1 -20 -7 -20 -15 0 -9 -15 -12 -57 -11 -44 2 -67 -2 -96 -19 -46 -27 -60 -28
-52 -3 3 10 0 25 -7 32 -11 12 -11 20 4 49 l17 35 1 -29 c0 -16 3 -27 6 -24 3
4 19 2 35 -2 23 -7 31 -5 36 5 3 8 9 13 14 10 4 -3 13 4 19 15 13 24 30 26 30
4 0 -8 7 -22 15 -30 13 -13 15 -13 15 -1 0 21 38 29 43 8 3 -9 5 -3 6 12 0 16
5 26 11 22 6 -3 10 0 10 8 0 10 7 13 20 10 11 -3 20 -9 20 -13z m140 3 c0 -12
3 -14 8 -6 5 8 13 9 22 3 8 -6 13 -10 10 -10 -3 0 -20 -4 -38 -10 -29 -8 -32
-7 -22 5 6 8 9 19 5 25 -3 5 -1 10 4 10 6 0 11 -8 11 -17z m-1503 -9 c-3 -3
-12 -4 -19 -1 -8 3 -5 6 6 6 11 1 17 -2 13 -5z m333 -4 c8 -5 11 -12 7 -16
-10 -11 -67 -13 -73 -3 -3 5 7 9 23 9 22 0 25 2 13 10 -13 9 -13 10 0 10 8 0
22 -4 30 -10z m-210 -10 c-8 -5 -19 -10 -25 -10 -5 0 -3 5 5 10 8 5 20 10 25
10 6 0 3 -5 -5 -10z m734 -16 c3 -8 2 -12 -4 -9 -6 3 -10 10 -10 16 0 14 7 11
14 -7z m-486 -12 c-24 -5 -23 -23 2 -29 11 -3 20 -9 20 -14 0 -14 -9 -11 -37
11 -18 14 -30 17 -43 10 -29 -16 -90 -20 -90 -7 0 8 -3 7 -9 -2 -5 -7 -14 -10
-20 -7 -15 10 -14 29 1 24 7 -3 36 1 65 8 29 7 51 8 47 3 -8 -13 7 -11 36 5
14 8 29 11 35 8 5 -4 2 -8 -7 -10z m133 0 c-11 -4 -11 -6 0 -13 12 -7 11 -9
-1 -9 -13 0 -13 -1 0 -11 13 -9 13 -10 0 -6 -8 2 -15 10 -15 17 0 7 -6 15 -12
18 -7 2 -13 -1 -13 -8 0 -6 -5 -8 -11 -4 -16 9 30 34 50 26 11 -4 12 -7 2 -10z
m1334 8 c-3 -5 -14 -10 -23 -9 -14 0 -13 2 3 9 27 11 27 11 20 0z m-1700 -15
c22 -7 32 -13 23 -14 -9 -1 -28 3 -42 9 -14 5 -27 6 -30 1 -3 -4 -31 -8 -63
-8 l-58 -1 44 9 c24 5 46 11 49 14 8 8 33 5 77 -10z m735 -19 c0 -8 -4 -17 -9
-21 -6 -3 -9 4 -8 15 1 23 17 28 17 6z m750 4 c0 -5 -2 -10 -4 -10 -3 0 -8 5
-11 10 -3 6 -1 10 4 10 6 0 11 -4 11 -10z m190 0 c0 -5 -8 -10 -17 -10 -15 0
-16 2 -3 10 19 12 20 12 20 0z m-1020 -9 c0 -5 -7 -11 -14 -14 -10 -4 -13 -1
-9 9 6 15 23 19 23 5z m119 -50 c-11 -22 -27 -42 -37 -46 -14 -5 -14 -4 1 13
9 10 17 24 17 30 0 10 27 42 36 42 2 0 -6 -18 -17 -39z m-29 19 c-8 -5 -22 -9
-30 -9 -10 0 -8 3 5 9 27 12 43 12 25 0z m-625 -9 c-3 -5 3 -12 12 -14 11 -3
7 -5 -10 -6 -19 -1 -26 3 -21 10 5 8 -1 10 -20 7 -14 -3 -26 -1 -26 3 0 5 16
9 36 9 19 0 33 -4 29 -9z m72 3 c-3 -3 -12 -4 -19 -1 -8 3 -5 6 6 6 11 1 17
-2 13 -5z m47 -5 c-4 -8 1 -9 17 -5 20 6 21 5 6 -4 -19 -12 -41 -4 -32 11 4 5
8 9 11 9 3 0 2 -5 -2 -11z m946 -32 c0 -6 -9 -2 -20 8 -11 10 -20 23 -20 28 0
6 9 2 20 -8 11 -10 20 -23 20 -28z m-836 -11 c25 0 26 -1 11 -12 -13 -10 -21
-10 -36 -1 -10 6 -19 17 -19 23 0 7 -9 10 -22 7 -21 -4 -21 -4 2 9 23 13 25
12 30 -7 4 -14 14 -20 34 -19z m76 32 c0 -4 -9 -8 -21 -8 -11 0 -18 4 -15 8 3
5 12 9 21 9 8 0 15 -4 15 -9z m216 -3 c-11 -8 -25 -15 -30 -15 -6 0 -2 7 8 15
11 8 25 15 30 15 6 0 2 -7 -8 -15z m-186 -15 c-6 -11 -13 -20 -16 -20 -2 0 0
9 6 20 6 11 13 20 16 20 2 0 0 -9 -6 -20z m1267 6 c0 -8 -6 -12 -14 -9 -7 3
-10 9 -7 14 8 14 21 11 21 -5z m-1637 -6 c11 -7 1 -9 -35 -9 -44 1 -46 2 -20
9 17 4 32 8 35 9 3 0 12 -4 20 -9z m103 3 c-7 -2 -19 -2 -25 0 -7 3 -2 5 12 5
14 0 19 -2 13 -5z m54 -9 c-3 -3 -12 -4 -19 -1 -8 3 -5 6 6 6 11 1 17 -2 13
-5z m640 -1 c-9 -2 -14 -9 -11 -15 4 -6 2 -8 -3 -5 -6 4 -13 0 -17 -8 -3 -8
-10 -15 -16 -15 -5 0 0 11 12 25 12 14 29 24 37 24 13 -1 12 -2 -2 -6z m1086
0 c-7 -2 -19 -2 -25 0 -7 3 -2 5 12 5 14 0 19 -2 13 -5z m-1133 -19 c0 -2 -9
-4 -20 -4 -11 0 -20 4 -20 9 0 5 9 7 20 4 11 -3 20 -7 20 -9z m863 9 c-7 -2
-21 -2 -30 0 -10 3 -4 5 12 5 17 0 24 -2 18 -5z m-1618 -13 c-3 -5 -16 -10
-28 -9 -21 0 -21 1 -2 9 28 12 37 12 30 0z m152 4 c-3 -3 -12 -4 -19 -1 -8 3
-5 6 6 6 11 1 17 -2 13 -5z m241 -8 c-7 -7 -19 -11 -27 -8 -10 4 -13 1 -8 -11
4 -11 1 -17 -8 -17 -23 0 -13 24 15 37 34 16 44 16 28 -1z m227 -7 c-4 -5 -12
-9 -18 -8 -9 0 -8 2 1 6 6 2 9 10 6 15 -4 7 -2 8 5 4 6 -4 9 -12 6 -17z m942
-1 c2 -18 0 -20 -7 -8 -12 18 -13 30 -2 30 4 0 9 -10 9 -22z m-1330 -8 c-1
-16 -57 -25 -57 -9 0 5 10 9 23 9 17 0 19 2 7 10 -12 7 -10 9 7 7 13 0 21 -7
20 -17z m295 -12 c-3 -14 -2 -19 6 -14 7 4 12 2 12 -3 0 -6 -6 -11 -13 -11 -7
0 -14 -11 -15 -25 -1 -14 1 -25 4 -25 4 0 17 11 30 25 22 24 52 36 39 16 -3
-6 3 -14 12 -20 16 -9 16 -10 -4 -8 -12 0 -19 5 -17 9 3 4 -1 8 -9 8 -10 0
-13 -7 -10 -18 3 -12 -4 -23 -21 -31 -14 -8 -23 -19 -19 -24 3 -6 1 -7 -6 -3
-6 4 -23 1 -36 -8 -13 -9 -30 -16 -37 -15 -10 0 -10 2 0 6 10 4 9 9 -5 19 -17
13 -17 14 1 7 11 -3 17 -2 14 3 -3 5 5 17 18 27 13 10 24 13 24 7 0 -5 -6 -10
-12 -10 -8 0 -6 -5 4 -10 9 -6 24 -7 33 -4 16 6 16 8 1 16 -12 7 -16 21 -14
49 1 22 6 43 10 45 5 3 5 10 2 16 -4 6 -2 8 4 5 5 -4 8 -17 4 -29z m52 16 c3
-9 6 -18 6 -20 0 -8 -29 -4 -35 6 -4 6 1 7 12 3 16 -6 16 -5 4 10 -7 9 -9 17
-3 17 5 0 13 -7 16 -16z m286 -4 c0 -11 -7 -20 -15 -20 -18 0 -19 12 -3 28 16
16 18 15 18 -8z m-1000 0 c-8 -5 -19 -10 -25 -10 -5 0 -3 5 5 10 8 5 20 10 25
10 6 0 3 -5 -5 -10z m1040 6 c0 -15 -14 -35 -21 -30 -15 9 -10 34 6 34 8 0 15
-2 15 -4z m280 -7 c0 8 3 11 7 7 5 -4 0 -13 -10 -21 -15 -11 -15 -14 -2 -25 8
-7 15 -21 15 -30 0 -10 4 -20 10 -22 6 -2 6 -8 0 -18 -8 -13 -10 -12 -10 3 0
9 -5 17 -11 17 -5 0 -7 5 -4 10 4 6 0 21 -7 33 -8 12 -12 31 -10 41 3 15 6 16
13 5 7 -12 9 -12 9 0z m-880 -3 c0 -3 -4 -8 -10 -11 -5 -3 -10 -1 -10 4 0 6 5
11 10 11 6 0 10 -2 10 -4z m340 -10 c0 -2 -11 -6 -25 -8 -13 -3 -22 -1 -19 3
5 9 44 13 44 5z m-333 -20 c-10 -8 -28 -11 -40 -8 -22 6 -22 6 3 13 43 12 58
10 37 -5z m112 -3 c-6 -7 -15 -13 -20 -13 -5 0 -6 6 -3 13 3 8 11 14 19 14 11
0 12 -4 4 -14z m211 -3 c0 -5 -5 -10 -11 -10 -5 0 -7 5 -4 10 3 6 8 10 11 10
2 0 4 -4 4 -10z m1015 -22 c7 -8 4 -9 -10 -3 -11 5 -32 8 -47 8 -15 0 -29 5
-32 12 -6 15 73 0 89 -17z m-1180 12 c4 -6 12 -7 18 -3 7 4 6 -1 -2 -11 -13
-15 -15 -16 -23 -1 -5 8 -14 12 -20 9 -7 -4 -8 -2 -4 4 9 15 23 15 31 2z m630
-9 c-3 -2 -16 -6 -28 -8 -15 -2 -18 0 -9 5 14 9 45 12 37 3z m-697 -8 c-10 -2
-18 -8 -18 -11 0 -4 -12 -8 -27 -9 l-28 -1 25 14 c14 7 34 13 45 12 17 0 17
-1 3 -5z m822 3 c0 -3 -4 -8 -10 -11 -5 -3 -10 -1 -10 4 0 6 5 11 10 11 6 0
10 -2 10 -4z m350 -20 c0 -2 -19 -3 -42 -3 -38 -1 -40 0 -13 6 26 6 55 4 55
-3z m-1415 -5 c3 -6 -10 -7 -32 -4 -50 8 -55 13 -10 13 20 0 38 -4 42 -9z m88
2 c-7 -2 -21 -2 -30 0 -10 3 -4 5 12 5 17 0 24 -2 18 -5z m197 1 c0 -8 -19
-13 -24 -6 -3 5 1 9 9 9 8 0 15 -2 15 -3z m800 2 c0 -3 -4 -8 -10 -11 -5 -3
-10 -1 -10 4 0 6 5 11 10 11 6 0 10 -2 10 -4z m-932 -18 c-3 -7 -13 -15 -23
-16 -15 -4 -16 -2 -4 12 17 19 32 21 27 4z m290 -5 c-8 -11 -7 -12 7 -7 12 5
16 4 12 -3 -4 -6 -1 -13 5 -16 11 -4 -8 -3 -67 3 -5 0 -2 7 7 14 10 7 16 15
13 17 -2 3 4 5 15 5 14 0 16 -3 8 -13z m-400 -2 c19 -12 -9 -22 -39 -14 -22 6
-22 7 -3 14 25 10 27 10 42 0z m1317 -1 c3 -5 1 -10 -4 -10 -6 0 -11 5 -11 10
0 6 2 10 4 10 3 0 8 -4 11 -10z m-405 -8 c0 -4 -9 -13 -20 -20 -11 -7 -20 -22
-20 -33 0 -16 -5 -20 -19 -16 -16 4 -18 0 -15 -21 3 -15 2 -23 -2 -19 -4 4
-13 2 -21 -4 -10 -9 -13 -5 -13 20 0 19 4 30 10 26 6 -3 10 1 10 9 0 9 6 13
14 10 8 -3 17 -1 21 5 3 6 0 11 -7 11 -7 0 1 9 17 20 32 21 45 25 45 12z m220
-15 c0 -13 -7 -32 -15 -43 -13 -17 -14 -17 -15 -1 0 9 4 17 9 17 4 0 6 11 3
25 -2 15 0 25 7 25 6 0 11 -10 11 -23z m-985 3 c3 -6 -1 -7 -9 -4 -18 7 -21
14 -7 14 6 0 13 -4 16 -10z m-57 -17 c-12 -15 -38 -17 -38 -4 0 5 -8 11 -17
14 -10 2 1 3 24 3 32 -1 39 -4 31 -13z m927 -1 c-3 -3 -11 0 -18 7 -9 10 -8
11 6 5 10 -3 15 -9 12 -12z m-641 -8 c5 -13 15 -15 49 -11 38 5 40 4 14 -6
-18 -7 -26 -16 -22 -26 3 -9 3 -13 0 -9 -4 3 -20 2 -36 -2 -18 -5 -27 -5 -24
1 4 5 13 9 21 9 8 0 14 5 14 11 0 5 -5 7 -12 3 -7 -4 -8 -3 -4 5 4 6 0 14 -8
17 -17 7 -22 24 -7 24 5 0 12 -7 15 -16z m26 6 c0 -5 -2 -10 -4 -10 -3 0 -8 5
-11 10 -3 6 -1 10 4 10 6 0 11 -4 11 -10z m-200 -16 c0 -9 -5 -12 -12 -8 -8 5
-9 2 -5 -9 3 -10 2 -17 -4 -17 -6 0 -7 -6 -3 -12 4 -7 4 -10 -1 -6 -5 5 -9 21
-9 36 -1 20 4 29 17 29 9 1 17 -5 17 -13z m583 -4 c-3 -11 -8 -20 -12 -20 -4
0 -7 9 -7 20 0 11 6 20 12 20 7 0 10 -8 7 -20z m544 12 c6 -4 -10 -7 -35 -8
-32 -1 -41 1 -27 7 26 10 47 10 62 1z m-1072 -18 c20 7 19 -8 -1 -28 -20 -20
-25 -20 -17 1 5 12 3 14 -7 8 -9 -5 -11 -4 -6 3 4 7 2 12 -3 12 -6 0 -11 5
-11 11 0 8 5 8 15 -1 8 -7 22 -10 30 -6z m-732 -1 c-7 -2 -19 -2 -25 0 -7 3
-2 5 12 5 14 0 19 -2 13 -5z m607 -3 c-8 -5 -19 -10 -25 -10 -5 0 -3 5 5 10 8
5 20 10 25 10 6 0 3 -5 -5 -10z m325 -10 c-3 -5 -11 -10 -16 -10 -6 0 -7 5 -4
10 3 6 11 10 16 10 6 0 7 -4 4 -10z m-349 -26 c14 5 15 4 4 -9 -9 -10 -17 -12
-23 -6 -5 5 -15 8 -21 7 -6 -2 -8 -1 -3 1 4 3 4 10 0 16 -4 7 1 6 10 -2 9 -7
24 -10 33 -7z m349 -4 c-3 -5 -10 -10 -16 -10 -5 0 -9 5 -9 10 0 6 7 10 16 10
8 0 12 -4 9 -10z m845 -10 c18 -12 2 -12 -25 0 -13 6 -15 9 -5 9 8 0 22 -4 30
-9z m57 4 c-3 -3 -12 -4 -19 -1 -8 3 -5 6 6 6 11 1 17 -2 13 -5z m-864 -20
c-6 -17 17 -28 30 -15 17 17 36 13 34 -8 -1 -15 -5 -17 -18 -10 -11 6 -20 5
-24 -1 -3 -5 2 -11 12 -11 17 -1 17 -2 1 -6 -10 -2 -18 -9 -18 -14 0 -15 -17
-10 -24 7 -4 11 -2 15 8 11 10 -4 13 -1 10 8 -6 16 -51 11 -74 -9 -8 -7 -22
-12 -30 -11 -18 1 -74 24 -69 28 2 2 12 9 22 17 10 7 17 9 16 4 -4 -22 2 -35
13 -28 7 5 8 3 4 -5 -11 -18 24 -10 44 10 9 8 19 23 23 32 3 9 15 15 25 14 11
0 18 -6 15 -13z m-53 -4 c0 -5 -4 -10 -10 -10 -5 0 -10 5 -10 10 0 6 5 10 10
10 6 0 10 -4 10 -10z m-205 -10 c3 -5 1 -10 -4 -10 -6 0 -11 5 -11 10 0 6 2
10 4 10 3 0 8 -4 11 -10z m60 -20 c-10 -11 -26 -20 -34 -19 -30 3 -42 -1 -36
-11 3 -5 1 -10 -4 -10 -6 0 -11 -7 -11 -15 0 -8 -9 -19 -20 -25 -11 -6 -20 -7
-20 -3 0 4 -5 2 -11 -4 -21 -21 -55 0 -50 31 1 5 -5 6 -14 3 -8 -4 -15 -2 -15
3 0 6 9 10 20 10 11 0 20 6 20 13 0 9 2 9 9 -1 4 -8 11 -13 15 -13 3 1 6 -1 6
-4 0 -26 -2 -28 -15 -11 -8 11 -15 15 -15 9 0 -6 6 -16 13 -22 11 -8 18 -6 32
9 10 11 23 20 28 20 5 0 15 7 21 16 7 8 24 17 40 18 15 2 32 8 39 15 19 19 21
12 2 -9z m1065 -16 c0 -9 -44 14 -48 25 -3 8 5 7 22 -4 14 -10 26 -19 26 -21z
m-1031 -10 c4 3 7 -4 7 -15 0 -16 -2 -18 -11 -7 -13 18 -45 11 -45 -9 0 -13 3
-13 15 -3 10 9 15 9 15 1 0 -6 -4 -12 -10 -12 -5 -1 -14 -2 -19 -3 -5 0 -13
-4 -17 -8 -4 -5 -16 -8 -27 -8 -19 0 -19 1 -2 20 10 11 22 17 28 13 6 -3 7 -1
3 6 -4 6 -12 9 -17 6 -5 -4 -9 -1 -9 6 0 6 8 9 18 7 10 -3 27 1 38 9 12 9 20
10 22 3 2 -5 7 -8 11 -6z m-489 -4 c-20 -13 -33 -13 -25 0 3 6 14 10 23 10 15
0 15 -2 2 -10z m210 6 c0 -3 -4 -8 -10 -11 -5 -3 -10 -1 -10 4 0 6 5 11 10 11
6 0 10 -2 10 -4z m633 -21 c-3 -9 -8 -14 -10 -11 -3 3 -2 9 2 15 9 16 15 13 8
-4z m-668 -4 c-3 -5 -1 -12 5 -16 12 -7 4 -25 -11 -25 -5 0 -9 11 -9 25 0 14
5 25 11 25 5 0 8 -4 4 -9z m-28 -7 c-3 -3 -12 -4 -19 -1 -8 3 -5 6 6 6 11 1
17 -2 13 -5z m-122 -24 c-11 -5 -29 -8 -40 -8 -16 0 -15 2 5 8 34 11 60 11 35
0z m213 -27 c2 -20 -1 -24 -9 -16 -7 7 -9 19 -6 27 9 23 12 20 15 -11z m-303
7 c-16 -4 -39 -8 -50 -8 -16 0 -15 2 5 8 14 4 36 8 50 8 22 0 22 -1 -5 -8z
m432 -11 c2 -16 -1 -18 -12 -9 -10 8 -14 8 -18 -2 -4 -9 -6 -7 -6 4 -1 9 7 19
17 21 9 3 17 5 17 6 1 0 1 -8 2 -20z m-87 1 c-8 -5 -19 -10 -25 -10 -5 0 -3 5
5 10 8 5 20 10 25 10 6 0 3 -5 -5 -10z m-427 -7 c-7 -2 -19 -2 -25 0 -7 3 -2
5 12 5 14 0 19 -2 13 -5z m-66 -9 c-3 -3 -12 -4 -19 -1 -8 3 -5 6 6 6 11 1 17
-2 13 -5z m528 -4 c-3 -5 -11 -10 -16 -10 -6 0 -7 5 -4 10 3 6 11 10 16 10 6
0 7 -4 4 -10z m365 -10 c-12 -22 -21 -26 -17 -7 2 10 17 26 25 27 1 0 -2 -9
-8 -20z m-947 3 c-7 -2 -19 -2 -25 0 -7 3 -2 5 12 5 14 0 19 -2 13 -5z m164 1
c-3 -3 -12 -4 -19 -1 -8 3 -5 6 6 6 11 1 17 -2 13 -5z m550 0 c-3 -3 -12 -4
-19 -1 -8 3 -5 6 6 6 11 1 17 -2 13 -5z m128 -34 c-3 -5 0 -10 7 -11 10 0 10
-2 1 -6 -15 -5 -17 -23 -4 -23 5 0 24 12 42 28 18 15 30 22 26 15 -11 -18 9
-25 23 -8 7 8 17 15 23 15 5 0 0 -9 -13 -20 -21 -18 -35 -24 -43 -17 -2 1 -11
-4 -20 -12 -10 -8 -27 -11 -43 -7 -14 4 -32 2 -39 -4 -10 -9 -13 -7 -11 7 2
10 11 18 22 18 10 0 20 6 20 13 2 19 4 22 10 22 3 0 2 -4 -1 -10z m160 1 c3
-6 -4 -15 -15 -21 -19 -10 -20 -10 -8 9 15 24 15 24 23 12z m-510 -21 c4 -6
-1 -7 -12 -3 -16 6 -16 5 -4 -10 12 -15 12 -17 -3 -11 -9 3 -16 2 -16 -4 0
-11 -47 -9 -58 3 -4 4 3 4 15 1 16 -5 27 -1 40 13 19 23 29 26 38 11z m195 6
c0 -3 -4 -8 -10 -11 -5 -3 -10 -1 -10 4 0 6 5 11 10 11 6 0 10 -2 10 -4z
m-291 -45 c11 -7 9 -10 -8 -16 -12 -3 -19 -11 -16 -16 3 -5 -2 -6 -11 -2 -13
5 -15 3 -9 -7 6 -9 4 -11 -4 -6 -7 5 -21 0 -32 -10 -10 -9 -19 -15 -19 -12 0
4 -46 -16 -101 -44 -56 -27 -104 -47 -107 -44 -2 3 6 10 19 15 37 14 211 100
218 107 3 4 -5 4 -19 0 -14 -4 -5 5 20 18 52 29 51 29 69 17z m331 5 c0 -2 -8
-10 -17 -17 -16 -13 -17 -12 -4 4 13 16 21 21 21 13z m-130 -10 c0 -3 -4 -8
-10 -11 -5 -3 -10 -1 -10 4 0 6 5 11 10 11 6 0 10 -2 10 -4z m86 -13 c-1 -7
-6 -16 -11 -20 -4 -4 -5 -1 -1 7 5 11 3 10 -6 -2 -11 -12 -18 -14 -32 -6 -14
8 -17 7 -12 -1 4 -6 1 -11 -8 -11 -22 0 -20 15 5 32 27 17 67 18 65 1z m71 2
c0 -8 -4 -12 -8 -9 -4 2 -10 0 -14 -6 -3 -6 -21 -17 -38 -26 -31 -16 -30 -15
8 19 45 40 52 43 52 22z m63 1 c0 -2 -8 -10 -17 -17 -16 -13 -17 -12 -4 4 13
16 21 21 21 13z m47 -19 c1 -11 1 -18 0 -16 -2 2 -8 11 -15 20 -9 12 -9 16 1
16 7 0 14 -9 14 -20z m73 -11 c0 -2 -8 -10 -17 -17 -16 -13 -17 -12 -4 4 13
16 21 21 21 13z m-700 -21 c-14 -8 -29 -14 -35 -14 -5 0 1 6 15 14 14 8 30 14
35 14 6 0 -1 -6 -15 -14z m-55 -24 c-3 -6 -11 -11 -16 -11 -5 0 -4 6 3 14 14
16 24 13 13 -3z m720 -28 c-2 -10 -4 -21 -4 -25 -1 -5 -6 -8 -12 -8 -8 0 -8 5
1 15 10 12 10 15 -1 15 -11 0 -11 2 1 10 19 13 19 13 15 -7z m-430 -13 c-3 -5
-12 -10 -18 -10 -7 0 -6 4 3 10 19 12 23 12 15 0z m70 -16 c-39 -32 -114 -84
-123 -84 -3 0 27 25 68 55 79 57 106 72 55 29z m213 4 c-13 -10 -26 -18 -30
-18 -5 0 -8 -7 -8 -16 0 -9 -5 -12 -12 -8 -8 5 -4 13 13 27 13 11 23 23 22 26
-1 4 7 7 18 7 19 0 18 -1 -3 -18z m-78 -8 c-12 -22 -21 -26 -17 -7 2 10 17 26
25 27 1 0 -2 -9 -8 -20z m140 -10 c0 -24 -15 -27 -24 -4 -3 8 -2 12 4 9 6 -3
10 -1 10 4 0 6 2 11 5 11 3 0 5 -9 5 -20z m-754 -15 c-11 -8 -24 -15 -30 -15
-5 0 -1 7 10 15 10 8 24 14 29 14 6 0 1 -6 -9 -14z m584 1 c0 -2 -8 -10 -17
-17 -16 -13 -17 -12 -4 4 13 16 21 21 21 13z m-635 -26 c-3 -5 -12 -10 -18
-10 -7 0 -6 4 3 10 19 12 23 12 15 0z m-35 -15 c0 -2 -10 -9 -22 -15 -22 -11
-22 -10 -4 4 21 17 26 19 26 11z m430 -29 c0 -2 -12 -11 -27 -20 l-28 -17 24
20 c23 21 31 25 31 17z m967 -11 c0 -8 -6 -15 -14 -15 -17 0 -17 17 0 23 6 3
12 6 13 6 0 1 1 -6 1 -14z m-836 -48 l-24 -22 19 27 c10 14 21 24 23 22 3 -3
-6 -15 -18 -27z m226 -44 c-8 -10 -21 -31 -27 -47 -6 -16 -13 -26 -16 -23 -10
10 45 101 55 91 2 -2 -3 -12 -12 -21z m-84 -38 c-3 -9 -8 -14 -10 -11 -3 3 -2
9 2 15 9 16 15 13 8 -4z m224 -27 c-3 -8 -6 -5 -6 6 -1 11 2 17 5 13 3 -3 4
-12 1 -19z m-10 -55 c-3 -10 -5 -4 -5 12 0 17 2 24 5 18 2 -7 2 -21 0 -30z
m-184 12 c-3 -9 -8 -14 -10 -11 -3 3 -2 9 2 15 9 16 15 13 8 -4z m187 -1029
c0 -3 -4 -8 -10 -11 -5 -3 -10 -1 -10 4 0 6 5 11 10 11 6 0 10 -2 10 -4z m321
-68 c-10 -31 -51 -70 -51 -48 0 5 9 14 20 20 11 6 22 26 26 48 4 20 9 31 11
25 3 -7 0 -28 -6 -45z m186 30 c-3 -8 -6 -5 -6 6 -1 11 2 17 5 13 3 -3 4 -12
1 -19z m-240 -63 c-1 -33 -5 -51 -10 -46 -9 9 -1 101 8 101 2 0 3 -25 2 -55z
m239 19 c-4 -9 -9 -15 -11 -12 -3 3 -3 13 1 22 4 9 9 15 11 12 3 -3 3 -13 -1
-22z"/>
<path d="M2710 3742 c0 -26 -11 -34 -29 -20 -11 8 -10 6 2 -8 15 -16 19 -17
27 -4 10 16 13 50 5 50 -3 0 -5 -8 -5 -18z"/>
<path d="M2772 3600 c0 -14 2 -19 5 -12 2 6 2 18 0 25 -3 6 -5 1 -5 -13z"/>
<path d="M2395 3630 c-3 -5 -1 -10 4 -10 6 0 11 5 11 10 0 6 -2 10 -4 10 -3 0
-8 -4 -11 -10z"/>
<path d="M2277 3603 c-4 -3 -7 -13 -6 -22 0 -12 3 -11 9 4 7 16 9 12 9 -19 1
-32 3 -36 15 -27 12 10 12 16 -1 41 -16 33 -16 33 -26 23z"/>
<path d="M2273 3525 c0 -22 2 -30 4 -17 2 12 2 30 0 40 -3 9 -5 -1 -4 -23z"/>
<path d="M2211 3471 c-12 -22 -5 -27 19 -11 11 7 12 12 3 21 -8 8 -14 6 -22
-10z"/>
<path d="M1840 2291 c0 -4 11 -6 25 -3 14 2 25 6 25 8 0 2 -11 4 -25 4 -14 0
-25 -4 -25 -9z"/>
<path d="M2266 2034 c-6 -16 2 -18 22 -5 11 7 11 9 -1 14 -9 3 -18 -1 -21 -9z"/>
<path d="M2470 1911 c0 -5 7 -11 14 -14 10 -4 13 -1 9 9 -6 15 -23 19 -23 5z"/>
<path d="M1930 1635 c-14 -8 -20 -14 -15 -14 6 0 21 6 35 14 14 8 21 14 15 14
-5 0 -21 -6 -35 -14z"/>
<path d="M1638 4318 c-6 -24 0 -188 17 -437 6 -86 27 -142 41 -108 3 10 1 30
-4 45 -6 15 -12 106 -14 203 -3 153 -1 176 12 171 12 -4 13 -2 3 9 -15 16 -17
55 -3 64 16 10 12 52 -6 59 -25 9 -42 7 -46 -6z"/>
<path d="M3241 4264 c0 -11 3 -14 6 -6 3 7 2 16 -1 19 -3 4 -6 -2 -5 -13z"/>
<path d="M1972 4155 c0 -16 2 -22 5 -12 2 9 2 23 0 30 -3 6 -5 -1 -5 -18z"/>
<path d="M2222 4018 c-15 -15 3 -48 26 -48 28 0 43 20 31 42 -11 20 -39 24
-57 6z"/>
<path d="M560 3883 c0 -33 15 -46 39 -34 26 14 27 27 2 41 -28 15 -41 12 -41
-7z"/>
<path d="M1761 3704 c6 -7 16 -11 21 -8 11 7 3 17 -18 20 -12 2 -13 -1 -3 -12z"/>
<path d="M1019 3124 c-7 -9 -7 -35 0 -86 5 -40 13 -110 16 -155 7 -77 8 -82
35 -93 42 -17 65 -9 63 20 -1 14 -5 70 -7 124 -3 54 -7 101 -10 103 -2 2 0 19
4 37 10 45 -7 66 -54 64 -20 -1 -41 -7 -47 -14z"/>
<path d="M773 2921 c-36 -23 -28 -132 10 -139 40 -8 89 53 58 72 -4 3 -11 19
-14 34 -6 29 -35 46 -54 33z"/>
<path d="M870 2367 c12 -13 22 -14 45 -8 l30 9 -27 1 c-14 1 -35 4 -45 7 -16
6 -16 5 -3 -9z"/>
<path d="M978 2353 c7 -3 16 -2 19 1 4 3 -2 6 -13 5 -11 0 -14 -3 -6 -6z"/>
<path d="M1040 2339 c0 -5 6 -9 14 -9 8 0 16 -7 20 -15 7 -19 33 -19 52 0 18
17 13 20 -48 29 -21 2 -38 1 -38 -5z"/>
<path d="M325 1843 c-38 -1 -127 -8 -197 -14 -103 -9 -128 -14 -128 -27 0 -12
10 -14 63 -7 81 11 112 10 231 -3 102 -11 128 -6 141 27 6 15 -12 32 -30 29
-5 -1 -41 -3 -80 -5z"/>
<path d="M620 1701 c-13 -26 -13 -31 5 -31 9 0 15 9 15 25 0 30 -6 32 -20 6z"/>
<path d="M1168 1713 c7 -3 16 -2 19 1 4 3 -2 6 -13 5 -11 0 -14 -3 -6 -6z"/>
<path d="M580 1620 c0 -5 14 -10 30 -10 17 0 30 5 30 10 0 6 -13 10 -30 10
-16 0 -30 -4 -30 -10z"/>
<path d="M586 1542 c-4 -10 -8 -61 -11 -113 -3 -52 -12 -125 -21 -164 -8 -38
-15 -81 -14 -95 4 -116 3 -138 -13 -169 -15 -31 -15 -36 -2 -51 8 -9 15 -34
15 -56 0 -21 4 -54 10 -73 7 -24 6 -41 -4 -60 -9 -18 -11 -43 -6 -86 4 -33 6
-76 4 -95 -3 -35 8 -50 38 -50 13 0 16 8 14 35 -2 20 1 38 5 41 5 3 9 10 9 15
0 6 -5 7 -11 3 -13 -7 -3 33 12 52 5 6 10 37 10 68 2 50 6 61 42 104 32 36 34
40 9 18 -17 -16 -35 -26 -39 -22 -4 4 -6 35 -4 69 6 91 4 165 -7 327 -6 83 -7
149 -2 155 6 7 3 22 -5 38 -8 15 -10 27 -4 27 5 0 9 23 9 50 0 37 -4 50 -14
50 -8 0 -17 -8 -20 -18z"/>
<path d="M1310 1340 c-13 -8 -13 -10 2 -10 9 0 20 5 23 10 8 13 -5 13 -25 0z"/>
<path d="M1155 1244 c-22 -13 -37 -24 -33 -24 14 0 78 34 78 42 0 10 3 11 -45
-18z"/>
<path d="M1234 1165 c-10 -8 -14 -15 -8 -15 6 0 17 7 24 15 16 19 9 19 -16 0z"/>
<path d="M955 1109 c-4 -6 -5 -12 -2 -15 2 -3 7 2 10 11 7 17 1 20 -8 4z"/>
<path d="M1180 560 c-8 -5 -12 -12 -9 -15 4 -3 12 1 19 10 14 17 11 19 -10 5z"/>
<path d="M885 528 c-16 -6 -76 -10 -132 -11 -62 0 -103 -4 -103 -10 0 -6 -3
-8 -6 -4 -10 10 -66 -23 -61 -36 6 -20 37 -20 92 -1 29 9 58 14 66 10 73 -37
116 -85 124 -138 5 -35 12 -174 15 -260 0 -20 28 -24 35 -5 4 10 11 165 18
404 2 52 -9 63 -48 51z"/>
<path d="M0 375 c0 -69 4 -125 9 -125 21 0 32 34 38 123 6 99 -1 127 -33 127
-11 0 -14 -25 -14 -125z"/>
<path d="M2660 55 c-11 -14 -11 -17 -1 -11 8 6 7 0 -4 -18 -10 -14 -13 -26 -7
-26 17 0 34 28 30 51 -3 21 -4 22 -18 4z"/>
</g>
</svg>
